<?xml version="1.0" encoding="UTF-8" standalone="no"?>
<!DOCTYPE svg PUBLIC "-//W3C//DTD SVG 1.1//EN" "http://www.w3.org/Graphics/SVG/1.1/DTD/svg11.dtd">
<svg width="100%" height="100%" viewBox="0 0 814 661" version="1.1" xmlns="http://www.w3.org/2000/svg" xmlns:xlink="http://www.w3.org/1999/xlink" xml:space="preserve" xmlns:serif="http://www.serif.com/" style="fill-rule:evenodd;clip-rule:evenodd;stroke-linecap:round;stroke-linejoin:round;stroke-miterlimit:1;">
    <g transform="matrix(1,0,0,1,-10901,-173)">
        <g id="analysis_bg" transform="matrix(0.18593,0,0,0.185622,10763.2,441.966)">
            
            <g id="porphystructlogo" transform="matrix(5.73028,0,0,5.48468,2916.55,238.599)">
                <g opacity="0.15">
                    <g transform="matrix(1,0,0,1,-512,-512)">
                        <g transform="matrix(0.896491,0,0,0.896754,-118.192,115.012)">
                            <g id="PorphyStruct">
                                <g>
                                    <g transform="matrix(1,0,0,6.54514,121.221,-2852.19)">
                                        <path d="M308.614,488.664L308.698,488.852L272.933,543.614L272.32,543.873L232.653,552.752L223.782,552.385L185.7,499.153L185.744,498.987L242.51,453.597L253.167,453.554L308.614,488.664ZM199.13,499.159L234.542,548.66L259.94,542.975L295.248,488.912L248.76,459.475L199.13,499.159Z" style="fill:rgb(142,207,221);"/>
                                    </g>
                                    <g transform="matrix(1,0,0,6.54514,121.221,-2852.19)">
                                        <path d="M480.235,471.393L536.443,508.981L536.506,509.177L532.813,513.625L532.813,513.625L498.289,555.205L492.326,555.723L454.241,552.83L452.232,552.379L417.552,502.762L359.988,502.762L357.004,502.502L325.491,494.693L298.063,487.897L297.106,487.51L297.148,487.094L298.183,486.712L300.052,486.423L302.472,486.27L305.074,486.277L307.462,486.442L309.272,486.741L336.699,493.537L365.321,500.63L418.464,500.63L469.922,471.361L480.235,471.393ZM430.29,501.784L464.883,551.278L486.717,552.936L519.591,513.345L523.041,509.189L474.426,476.679L430.29,501.784Z" style="fill:rgb(142,207,221);"/>
                                    </g>
                                    <g transform="matrix(-1,0,0,6.54514,1294.22,-2852.19)">
                                        <path d="M242.511,453.597L185.744,498.987L185.701,499.153L223.782,552.385L232.652,552.752L272.32,543.873L272.933,543.614L308.697,488.852L308.613,488.664L253.167,453.554L242.511,453.597ZM295.248,488.912L259.939,542.975L234.542,548.66L199.13,499.159L248.761,459.475L295.248,488.912Z" style="fill:rgb(142,207,221);"/>
                                    </g>
                                    <g transform="matrix(-1,0,0,6.54514,1294.22,-2852.19)">
                                        <path d="M438.526,489.218L438.526,489.218L418.464,500.63L365.32,500.63L339.435,494.215L339.435,494.215L309.272,486.741L307.462,486.442L305.075,486.277L302.473,486.27L300.053,486.423L298.183,486.712L297.149,487.094L297.107,487.51L298.064,487.897L328.226,495.371L357.003,502.502L359.987,502.762L417.552,502.762L452.231,552.379L454.241,552.83L492.326,555.723L498.288,555.205L536.507,509.177L536.444,508.981L508.485,490.285L480.234,471.393L469.922,471.361L438.526,489.218ZM495.513,490.781L523.041,509.189L486.717,552.936L464.882,551.278L430.289,501.784L451.366,489.795L474.425,476.679L495.513,490.781Z" style="fill:rgb(142,207,221);"/>
                                    </g>
                                    <g transform="matrix(0.783695,0,0,0.783695,106.336,-31.3166)">
                                        <circle cx="335.63" cy="203.006" r="23.987" style="fill:rgb(142,207,221);"/>
                                    </g>
                                    <g transform="matrix(0.783695,0,0,0.783695,160.194,176.016)">
                                        <circle cx="335.63" cy="203.006" r="23.987" style="fill:rgb(142,207,221);"/>
                                    </g>
                                    <g transform="matrix(0.783695,0,0,0.783695,50.5755,251.06)">
                                        <circle cx="335.63" cy="203.006" r="23.987" style="fill:rgb(142,207,221);"/>
                                    </g>
                                    <g transform="matrix(0.783695,0,0,0.783695,106.336,-31.3166)">
                                        <circle cx="335.63" cy="203.006" r="23.987" style="fill:rgb(142,207,221);"/>
                                    </g>
                                    <g transform="matrix(0.783695,0,0,0.783695,220.094,269.859)">
                                        <circle cx="335.63" cy="203.006" r="23.987" style="fill:rgb(142,207,221);"/>
                                    </g>
                                    <g transform="matrix(0.783695,0,0,0.783695,282.445,269.859)">
                                        <circle cx="335.63" cy="203.006" r="23.987" style="fill:rgb(142,207,221);"/>
                                    </g>
                                    <g transform="matrix(0.783695,0,0,0.783695,87.5378,585.993)">
                                        <circle cx="335.63" cy="203.006" r="23.987" style="fill:rgb(142,207,221);"/>
                                    </g>
                                    <g transform="matrix(0.783695,0,0,0.783695,125.135,541.352)">
                                        <circle cx="335.63" cy="203.006" r="23.987" style="fill:rgb(142,207,221);"/>
                                    </g>
                                    <g transform="matrix(0.783695,0,0,0.783695,330.127,85.9203)">
                                        <circle cx="335.63" cy="203.006" r="23.987" style="fill:rgb(142,207,221);"/>
                                    </g>
                                    <g transform="matrix(0.783695,0,0,0.783695,388.004,311.722)">
                                        <circle cx="335.63" cy="203.006" r="23.987" style="fill:rgb(142,207,221);"/>
                                    </g>
                                    <g transform="matrix(0.783695,0,0,0.783695,311.328,598.599)">
                                        <circle cx="335.63" cy="203.006" r="23.987" style="fill:rgb(142,207,221);"/>
                                    </g>
                                    <g transform="matrix(0.783695,0,0,0.783695,350.407,617.398)">
                                        <circle cx="335.63" cy="203.006" r="23.987" style="fill:rgb(142,207,221);"/>
                                    </g>
                                    <g transform="matrix(0.783695,0,0,0.783695,449.064,227.204)">
                                        <circle cx="335.63" cy="203.006" r="23.987" style="fill:rgb(142,207,221);"/>
                                    </g>
                                    <g transform="matrix(1.11546,0,0,1.11513,125.146,-128.254)">
                                        <path d="M471.063,536.847L504.46,493.261L528.853,461.427L573.087,528.858" style="fill:none;stroke:rgb(142,207,221);stroke-width:12.5px;"/>
                                    </g>
                                    <g transform="matrix(0.783695,0,0,0.783695,501.37,302.399)">
                                        <circle cx="335.63" cy="203.006" r="23.987" style="fill:rgb(142,207,221);"/>
                                    </g>
                                    <g transform="matrix(0.783695,0,0,0.783695,536.052,617.398)">
                                        <circle cx="335.63" cy="203.006" r="23.987" style="fill:rgb(142,207,221);"/>
                                    </g>
                                    <g transform="matrix(0.783695,0,0,0.783695,573.649,598.599)">
                                        <circle cx="335.63" cy="203.006" r="23.987" style="fill:rgb(142,207,221);"/>
                                    </g>
                                    <g transform="matrix(0.783695,0,0,0.783695,670.031,264.801)">
                                        <circle cx="335.63" cy="203.006" r="23.987" style="fill:rgb(142,207,221);"/>
                                    </g>
                                    <g transform="matrix(0.783695,0,0,0.783695,727.517,185.907)">
                                        <circle cx="335.63" cy="203.006" r="23.987" style="fill:rgb(142,207,221);"/>
                                    </g>
                                    <g transform="matrix(0.783695,0,0,0.783695,784.538,-26.88)">
                                        <circle cx="335.63" cy="203.006" r="23.987" style="fill:rgb(142,207,221);"/>
                                    </g>
                                    <g transform="matrix(0.783695,0,0,0.783695,838.799,262.703)">
                                        <circle cx="335.63" cy="203.006" r="23.987" style="fill:rgb(142,207,221);"/>
                                    </g>
                                    <g transform="matrix(0.783695,0,0,0.783695,759.134,542.204)">
                                        <circle cx="335.63" cy="203.006" r="23.987" style="fill:rgb(142,207,221);"/>
                                    </g>
                                    <g transform="matrix(0.783695,0,0,0.783695,800.558,588.722)">
                                        <circle cx="335.63" cy="203.006" r="23.987" style="fill:rgb(142,207,221);"/>
                                    </g>
                                    <g transform="matrix(0.783695,0,0,0.783695,553.757,80.9183)">
                                        <circle cx="335.63" cy="203.006" r="23.987" style="fill:rgb(142,207,221);"/>
                                    </g>
                                    <g transform="matrix(0.783925,0,0,0.783695,612.141,271.492)">
                                        <circle cx="335.63" cy="203.006" r="23.987" style="fill:rgb(142,207,221);"/>
                                    </g>
                                </g>
                            </g>
                        </g>
                    </g>
                </g>
            </g>
        </g>
    </g>
</svg>
