<?xml version="1.0" encoding="UTF-8" standalone="no"?>
<!DOCTYPE svg PUBLIC "-//W3C//DTD SVG 1.1//EN" "http://www.w3.org/Graphics/SVG/1.1/DTD/svg11.dtd">
<svg width="100%" height="100%" viewBox="0 0 356 356" version="1.1" xmlns="http://www.w3.org/2000/svg" xmlns:xlink="http://www.w3.org/1999/xlink" xml:space="preserve" xmlns:serif="http://www.serif.com/" style="fill-rule:evenodd;clip-rule:evenodd;stroke-linejoin:round;stroke-miterlimit:2;">
    <g transform="matrix(5.55556,0,0,5.55556,0,0)">
        <path d="M32,0C49.661,0 64,14.339 64,32C64,49.661 49.661,64 32,64C14.339,64 0,49.661 0,32C0,14.339 14.339,0 32,0ZM26.12,49.4C25.398,49.75 24.602,49.918 23.8,49.89C22.723,49.939 21.676,49.519 20.93,48.74C20.195,47.918 19.808,46.842 19.85,45.74C19.796,44.535 20.233,43.358 21.06,42.48C21.867,41.653 22.985,41.203 24.14,41.24C24.824,41.217 25.505,41.336 26.14,41.59L26.14,42.59C25.529,42.251 24.839,42.079 24.14,42.09C23.249,42.065 22.39,42.43 21.79,43.09C21.167,43.8 20.844,44.726 20.89,45.67C20.843,46.564 21.144,47.443 21.73,48.12C22.298,48.731 23.106,49.064 23.94,49.03C24.708,49.05 25.466,48.856 26.13,48.47L26.12,49.4ZM30.21,49.89C29.405,49.916 28.627,49.591 28.08,49C27.533,48.39 27.249,47.588 27.29,46.77C27.24,45.904 27.539,45.054 28.12,44.41C28.714,43.831 29.521,43.523 30.35,43.56C31.134,43.518 31.898,43.822 32.44,44.39C32.971,45.03 33.24,45.849 33.19,46.68C33.232,47.523 32.941,48.349 32.38,48.98C31.823,49.582 31.03,49.915 30.21,49.89ZM43.72,47L43.71,46.48C43.758,45.72 43.53,44.967 43.07,44.36C42.612,43.842 41.941,43.561 41.25,43.6C40.486,43.578 39.751,43.902 39.25,44.48C38.707,45.112 38.424,45.927 38.46,46.76C38.409,47.59 38.67,48.411 39.19,49.06C39.701,49.617 40.435,49.918 41.19,49.88C41.929,49.917 42.662,49.717 43.28,49.31L43.28,48.41C42.754,48.837 42.098,49.073 41.42,49.08C40.892,49.11 40.375,48.914 40,48.54C39.644,48.109 39.462,47.559 39.49,47L43.72,47ZM35.72,49.75L35.72,46.69C35.689,46.134 35.832,45.581 36.13,45.11C36.346,44.763 36.721,44.545 37.13,44.53C37.388,44.512 37.644,44.579 37.86,44.72L37.86,43.73C37.677,43.668 37.483,43.641 37.29,43.65C36.945,43.649 36.611,43.774 36.35,44C36.049,44.266 35.83,44.613 35.72,45L35.72,43.75L34.72,43.75L34.72,49.75L35.72,49.75ZM30.28,44.42C29.723,44.397 29.185,44.629 28.82,45.05C28.435,45.545 28.243,46.164 28.28,46.79C28.245,47.397 28.438,47.997 28.82,48.47C29.189,48.885 29.725,49.113 30.28,49.09C30.823,49.122 31.352,48.9 31.71,48.49C32.073,47.993 32.251,47.384 32.21,46.77C32.25,46.153 32.073,45.541 31.71,45.04C31.357,44.621 30.827,44.391 30.28,44.42ZM42.72,46.19C42.74,45.727 42.599,45.271 42.32,44.9C42.043,44.587 41.637,44.417 41.22,44.44C40.785,44.435 40.367,44.613 40.07,44.93C39.741,45.278 39.534,45.724 39.48,46.2L42.72,46.19ZM7.4,37.25C7.023,37.256 6.66,37.104 6.4,36.83C6.133,36.566 5.985,36.205 5.99,35.83C5.987,35.455 6.135,35.095 6.4,34.83C6.657,34.552 7.021,34.395 7.4,34.4C7.778,34.399 8.14,34.555 8.4,34.83C8.67,35.093 8.821,35.454 8.82,35.83C8.824,36.207 8.671,36.569 8.4,36.83C8.138,37.1 7.777,37.252 7.4,37.25ZM41.24,20.7L41.24,18.77L32,18.77L32,37L41.69,37L41.7,35L34.18,35L34.18,28.68L40.76,28.68L40.76,26.76L34.18,26.76L34.18,20.7L41.24,20.7ZM56,20.7L56,18.77L43.33,18.77L43.33,20.7L48.57,20.7L48.57,37L50.7,37L50.7,20.7L56,20.7ZM27.27,37L27.27,18.77L25.14,18.77L25.14,31.59C25.121,32.485 25.164,33.381 25.27,34.27L25.22,34.27C25.107,34.05 24.86,33.643 24.48,33.05L15.36,18.77L12.59,18.77L12.59,37L14.72,37L14.72,23.82C14.742,22.985 14.709,22.15 14.62,21.32L14.7,21.32C14.852,21.72 15.047,22.102 15.28,22.46L24.65,37L27.27,37Z" style="fill:rgb(41,56,77);"/>
        <path d="M9.82,9C3.01,15.069 -0.891,23.769 -0.891,32.891C-0.891,50.445 13.555,64.891 31.109,64.891C40.231,64.891 48.931,60.99 55,54.18L9.82,9Z" style="fill-opacity:0.1;fill-rule:nonzero;"/>
    </g>
</svg>
