<?xml version="1.0" encoding="UTF-8" standalone="no"?><!DOCTYPE svg PUBLIC "-//W3C//DTD SVG 1.1//EN" "http://www.w3.org/Graphics/SVG/1.1/DTD/svg11.dtd"><svg width="100%" height="100%" viewBox="0 0 722 722" version="1.1" xmlns="http://www.w3.org/2000/svg" xmlns:xlink="http://www.w3.org/1999/xlink" xml:space="preserve" xmlns:serif="http://www.serif.com/" style="fill-rule:evenodd;clip-rule:evenodd;stroke-linejoin:round;stroke-miterlimit:2;"><clipPath id="_clip1"><rect id="Herunterladen" x="36.058" y="43.269" width="288.462" height="288.462"/></clipPath><g clip-path="url(#_clip1)"><circle cx="180.288" cy="187.5" r="144.231" style="fill:#5c2d91;"/><path d="M80.318,83.834c-30.695,27.353 -48.275,66.566 -48.275,107.681c0,79.122 65.108,144.23 144.231,144.23c41.114,0 80.327,-17.58 107.68,-48.275l-203.636,-203.636Z" style="fill-opacity:0.1;fill-rule:nonzero;"/><path d="M69.411,211.163c-1.7,0.027 -3.336,-0.66 -4.507,-1.893c-1.203,-1.188 -1.871,-2.817 -1.848,-4.507c-0.012,-1.689 0.654,-3.314 1.848,-4.508c1.16,-1.254 2.799,-1.958 4.507,-1.938c1.705,-0.004 3.337,0.698 4.507,1.938c1.215,1.184 1.899,2.812 1.893,4.508c0.016,1.698 -0.669,3.329 -1.893,4.507c-1.18,1.219 -2.81,1.903 -4.507,1.893Z" style="fill:#fff;fill-rule:nonzero;"/><path d="M158.969,210.036l-11.809,0l-42.232,-65.535c-1.052,-1.614 -1.929,-3.337 -2.614,-5.138l-0.361,0c0.401,3.742 0.552,7.506 0.451,11.268l0,59.405l-9.601,0l0,-82.166l12.485,0l41.106,64.363c1.713,2.674 2.825,4.507 3.335,5.498l0.226,0c-0.476,-4.008 -0.672,-8.044 -0.586,-12.079l0,-57.782l9.6,0l0,82.166Z" style="fill:#fff;fill-rule:nonzero;"/><path d="M223.963,210.036l-43.675,0l0,-82.166l41.647,0l0,8.699l-31.821,0l0,27.313l29.658,0l0,8.654l-29.658,0l0,28.486l33.894,0l-0.045,9.014Z" style="fill:#fff;fill-rule:nonzero;"/><path d="M288.461,136.569l-23.888,0l0,73.467l-9.6,0l0,-73.467l-23.618,0l0,-8.699l57.106,0l0,8.699Z" style="fill:#fff;fill-rule:nonzero;"/><path d="M153.786,265.925c-3.254,1.576 -6.844,2.335 -10.457,2.209c-4.855,0.219 -9.575,-1.673 -12.935,-5.183c-3.311,-3.706 -5.057,-8.556 -4.868,-13.522c-0.245,-5.432 1.724,-10.737 5.453,-14.693c3.637,-3.726 8.679,-5.756 13.883,-5.589c3.081,-0.106 6.151,0.432 9.014,1.577l0,4.507c-2.756,-1.525 -5.864,-2.303 -9.014,-2.253c-4.017,-0.113 -7.889,1.534 -10.592,4.507c-2.81,3.201 -4.266,7.374 -4.057,11.629c-0.21,4.03 1.147,7.989 3.786,11.042c2.561,2.754 6.204,4.254 9.961,4.102c3.461,0.09 6.879,-0.784 9.871,-2.524l-0.045,4.191Z" style="fill:#f2f2f2;fill-rule:nonzero;"/><path d="M172.22,268.134c-3.628,0.117 -7.134,-1.347 -9.6,-4.011c-2.464,-2.75 -3.744,-6.364 -3.561,-10.051c-0.227,-3.902 1.122,-7.737 3.741,-10.638c2.676,-2.61 6.317,-3.998 10.051,-3.831c3.534,-0.188 6.979,1.18 9.421,3.741c2.394,2.886 3.603,6.578 3.38,10.322c0.189,3.799 -1.123,7.524 -3.651,10.366c-2.512,2.716 -6.083,4.213 -9.781,4.102Zm0.316,-24.654c-2.51,-0.106 -4.935,0.941 -6.581,2.839c-1.733,2.233 -2.599,5.021 -2.433,7.843c-0.158,2.738 0.71,5.438 2.433,7.572c1.662,1.871 4.081,2.898 6.581,2.794c2.449,0.145 4.832,-0.855 6.445,-2.704c1.639,-2.239 2.437,-4.984 2.254,-7.752c0.178,-2.782 -0.619,-5.54 -2.254,-7.798c-1.591,-1.888 -3.979,-2.924 -6.445,-2.794Z" style="fill:#f2f2f2;fill-rule:nonzero;"/><path d="M206.701,244.832c-0.974,-0.638 -2.13,-0.939 -3.291,-0.857c-1.842,0.067 -3.534,1.049 -4.507,2.615c-1.341,2.123 -1.987,4.613 -1.848,7.121l0,13.792l-4.507,0l0,-27.043l4.507,0l0,5.634c0.496,-1.743 1.481,-3.308 2.84,-4.507c1.175,-1.02 2.68,-1.581 4.236,-1.578c0.872,-0.039 1.743,0.083 2.57,0.361l0,4.462Z" style="fill:#f2f2f2;fill-rule:nonzero;"/><path d="M233.113,255.108l-19.066,0c-0.128,2.519 0.693,4.997 2.299,6.941c1.689,1.685 4.019,2.571 6.4,2.434c3.055,-0.03 6.011,-1.095 8.384,-3.02l0,4.057c-2.787,1.836 -6.088,2.737 -9.42,2.569c-3.404,0.172 -6.712,-1.185 -9.015,-3.696c-2.346,-2.926 -3.519,-6.623 -3.29,-10.367c-0.162,-3.752 1.112,-7.428 3.561,-10.276c2.256,-2.606 5.568,-4.064 9.014,-3.966c3.113,-0.175 6.139,1.089 8.203,3.425c2.075,2.736 3.099,6.128 2.885,9.555l0.045,2.344Zm-4.507,-3.651c0.091,-2.088 -0.547,-4.144 -1.803,-5.814c-1.249,-1.411 -3.077,-2.175 -4.958,-2.073c-1.96,-0.024 -3.843,0.778 -5.183,2.208c-1.484,1.569 -2.417,3.579 -2.66,5.724l14.604,-0.045Z" style="fill:#f2f2f2;fill-rule:nonzero;"/></g><path d="M360.577,340.582c7.591,-19.297 22.773,-19.297 30.364,-11.725c7.592,7.572 7.592,22.717 0,37.861c-5.314,11.358 -18.978,22.716 -30.364,30.288c-11.387,-7.572 -25.051,-18.93 -30.365,-30.288c-7.591,-15.144 -7.591,-30.289 0,-37.861c7.592,-7.572 22.774,-7.572 30.365,11.725Z" style="fill:#f00;"/><clipPath id="_clip2"><rect id="Herunterladen--1-" serif:id="Herunterladen (1)" x="382.212" y="375" width="274.038" height="274.038"/></clipPath><g clip-path="url(#_clip2)"><circle cx="519.231" cy="512.019" r="137.019" style="fill:#05930c;"/><path d="M424.259,413.537c-29.16,25.985 -45.861,63.238 -45.861,102.296c0,75.167 61.852,137.019 137.019,137.019c39.058,0 76.311,-16.701 102.296,-45.861l-193.454,-193.454Z" style="fill-opacity:0.1;fill-rule:nonzero;"/><path d="M512.508,561.475c-9.32,4.535 -19.614,6.711 -29.973,6.337c-13.842,0.606 -27.293,-4.799 -36.866,-14.815c-9.515,-10.666 -14.482,-24.645 -13.831,-38.922c-0.669,-15.472 4.957,-30.573 15.586,-41.834c10.39,-10.63 24.795,-16.401 39.65,-15.886c8.682,-0.331 17.34,1.126 25.434,4.282l0,13.488c-7.85,-4.364 -16.71,-6.593 -25.691,-6.466c-11.308,-0.375 -22.243,4.156 -29.973,12.418c-8.015,9.136 -12.164,21.045 -11.561,33.184c-0.593,11.472 3.276,22.74 10.79,31.429c7.29,7.837 17.652,12.11 28.346,11.689c9.866,0.245 19.609,-2.261 28.132,-7.236l-0.043,12.332Z" style="fill:#fff;fill-rule:nonzero;"/><path d="M608.122,488.298l-1.713,7.964l-19.696,0l-4.71,22.608l21.152,0l-2.012,7.964l-20.725,0l-6.636,29.973l-9.463,0l6.465,-29.973l-18.84,0l-6.337,29.973l-9.249,0l6.337,-29.973l-19.867,0l1.498,-7.964l19.954,0l4.581,-22.565l-20.852,0l1.584,-7.964l20.852,0l6.338,-30.273l9.548,0l-6.337,30.273l18.969,0l6.465,-30.273l9.249,0l-6.337,30.273l19.782,-0.043Zm-30.701,7.964l-19.011,0l-4.924,22.608l19.097,0l4.838,-22.608Z" style="fill:#fff;fill-rule:nonzero;"/></g></svg>