<?xml version="1.0" encoding="UTF-8" standalone="no"?><!DOCTYPE svg PUBLIC "-//W3C//DTD SVG 1.1//EN" "http://www.w3.org/Graphics/SVG/1.1/DTD/svg11.dtd"><svg width="100%" height="100%" viewBox="0 0 962 962" version="1.1" xmlns="http://www.w3.org/2000/svg" xmlns:xlink="http://www.w3.org/1999/xlink" xml:space="preserve" xmlns:serif="http://www.serif.com/" style="fill-rule:evenodd;clip-rule:evenodd;stroke-linecap:round;stroke-linejoin:round;stroke-miterlimit:1.5;"><path d="M900.577,750l-820.385,0c-23.032,0 -41.73,-18.699 -41.73,-41.731l3.846,-551.154c0,-23.031 18.698,-41.729 41.73,-41.73l820.385,0c23.033,0.001 41.731,18.699 41.731,41.73l-3.846,551.154c0,23.032 -18.699,41.731 -41.731,41.731Zm-404.423,-53.846c12.736,0 23.077,10.34 23.077,23.077c0,12.736 -10.341,23.077 -23.077,23.077c-12.737,0 -23.077,-10.341 -23.077,-23.077c0,-12.737 10.34,-23.077 23.077,-23.077Zm383.151,-551.923l-770.149,0c-20.804,0.001 -37.692,16.89 -37.692,37.692l0,463.077c0,20.803 16.889,37.692 37.692,37.692l770.149,0c20.803,0 37.693,-16.889 37.693,-37.692l0,-463.077c0,-20.802 -16.889,-37.691 -37.693,-37.692Z" style="fill:#29384d;"/><rect x="324.83" y="836.538" width="346.154" height="57.692" style="fill:#29384d;stroke:#29384d;stroke-width:11.11px;"/><path d="M421.154,698.077l-90.385,138.461l334.446,-1.923l-86.369,-138.461" style="fill:none;stroke:#29384d;stroke-width:22.22px;"/><circle cx="691.912" cy="224.265" r="41.572" style="fill:#29384d;"/><circle cx="317.76" cy="529.129" r="41.572" style="fill:#29384d;"/><circle cx="276.188" cy="238.122" r="41.572" style="fill:#29384d;"/><circle cx="484.05" cy="612.274" r="41.572" style="fill:#29384d;"/><path d="M462.406,299.39c-12.867,4.35 -24.825,11.026 -35.278,19.698c-4.985,7.507 -4.206,14.357 2.339,20.552c-9.534,10.074 -16.727,22.129 -21.065,35.304c-8.559,-2.818 -14.958,-0.25 -19.197,7.702c-2.666,13.318 -2.863,27.012 -0.58,40.401c4.009,8.071 10.331,10.82 18.968,8.249c3.957,13.295 10.801,25.551 20.042,35.896c-6.72,6.003 -7.696,12.829 -2.929,20.475c10.201,8.969 21.962,15.986 34.699,20.704c8.993,0.563 14.536,-3.537 16.628,-12.303c13.492,3.22 27.528,3.422 41.107,0.591c1.84,8.822 7.262,13.08 16.268,12.774c12.867,-4.349 24.825,-11.026 35.279,-19.698c4.985,-7.506 4.205,-14.357 -2.34,-20.551c9.535,-10.075 16.727,-22.13 21.065,-35.305c8.559,2.818 14.959,0.251 19.197,-7.701c2.667,-13.318 2.864,-27.012 0.581,-40.401c-4.009,-8.071 -10.332,-10.821 -18.969,-8.25c-3.957,-13.294 -10.801,-25.551 -20.042,-35.895c6.72,-6.004 7.697,-12.829 2.929,-20.476c-10.2,-8.968 -21.961,-15.986 -34.698,-20.703c-8.994,-0.564 -14.537,3.537 -16.628,12.302c-13.492,-3.22 -27.529,-3.421 -41.108,-0.59c-1.839,-8.822 -7.262,-13.08 -16.268,-12.775Zm8.034,55.828c27.15,-15.16 61.501,-5.425 76.661,21.726c15.16,27.151 5.425,61.502 -21.726,76.662c-27.151,15.159 -61.502,5.424 -76.662,-21.727c-15.159,-27.15 -5.424,-61.501 21.727,-76.661Z" style="fill:#29384d;"/><path d="M276.188,224.265l165.376,138.574c-23.951,24.342 -21.977,52.335 0,83.145l-123.804,83.145l123.804,-83.145c7.612,24.731 28.675,30.805 56.343,27.715l-13.857,138.575l13.857,-138.575l56.343,-12.944l12.945,-56.343l-12.945,-56.343l137.662,-123.804" style="fill:none;stroke:#29384d;stroke-width:16.01px;"/></svg>